<svg width="22" height="22" viewBox="0 0 22 22" fill="none" xmlns="http://www.w3.org/2000/svg">
<path d="M8.25016 10.0833C10.2752 10.0833 11.9168 8.44171 11.9168 6.41667C11.9168 4.39162 10.2752 2.75 8.25016 2.75C6.22512 2.75 4.5835 4.39162 4.5835 6.41667C4.5835 8.44171 6.22512 10.0833 8.25016 10.0833Z" stroke="#4E978A" stroke-width="1.5" stroke-linecap="round" stroke-linejoin="round"/>
<path d="M2.75 19.25V17.4167C2.75 16.4442 3.13631 15.5116 3.82394 14.8239C4.51158 14.1363 5.44421 13.75 6.41667 13.75H10.0833C11.0558 13.75 11.9884 14.1363 12.6761 14.8239C13.3637 15.5116 13.75 16.4442 13.75 17.4167V19.25" stroke="#4E978A" stroke-width="1.5" stroke-linecap="round" stroke-linejoin="round"/>
<path d="M17.4165 7.33337V12.8334M14.6665 10.0834H20.1665H14.6665Z" stroke="#4E978A" stroke-width="1.5" stroke-linecap="round" stroke-linejoin="round"/>
</svg>
