<svg width="22" height="22" viewBox="0 0 22 22" fill="none" xmlns="http://www.w3.org/2000/svg">
<path d="M8.25016 3.66675V20.1667M5.50016 3.66675H15.5835C16.0697 3.66675 16.536 3.8599 16.8799 4.20372C17.2237 4.54754 17.4168 5.01385 17.4168 5.50008V16.5001C17.4168 16.9863 17.2237 17.4526 16.8799 17.7964C16.536 18.1403 16.0697 18.3334 15.5835 18.3334H5.50016C5.25705 18.3334 5.02389 18.2368 4.85198 18.0649C4.68007 17.893 4.5835 17.6599 4.5835 17.4167V4.58341C4.5835 4.3403 4.68007 4.10714 4.85198 3.93523C5.02389 3.76333 5.25705 3.66675 5.50016 3.66675V3.66675Z" stroke="#4E978A" stroke-width="1.5" stroke-linecap="round" stroke-linejoin="round"/>
<path d="M11.9165 7.33325H13.7498" stroke="#4E978A" stroke-width="1.5" stroke-linecap="round" stroke-linejoin="round"/>
<path d="M11.9165 11H13.7498" stroke="#4E978A" stroke-width="1.5" stroke-linecap="round" stroke-linejoin="round"/>
</svg>
