<svg width="25" height="24" viewBox="0 0 25 24" fill="none" xmlns="http://www.w3.org/2000/svg">
<path d="M10.4167 8V6C10.4167 5.46957 10.6362 4.96086 11.0269 4.58579C11.4176 4.21071 11.9475 4 12.5 4H19.7917C20.3442 4 20.8741 4.21071 21.2648 4.58579C21.6555 4.96086 21.875 5.46957 21.875 6V18C21.875 18.5304 21.6555 19.0391 21.2648 19.4142C20.8741 19.7893 20.3442 20 19.7917 20H12.5C11.9475 20 11.4176 19.7893 11.0269 19.4142C10.6362 19.0391 10.4167 18.5304 10.4167 18V16" stroke="#4E978A" stroke-width="1.5" stroke-linecap="round" stroke-linejoin="round"/>
<path d="M17.7085 12H3.12516M3.12516 12L6.25016 9M3.12516 12L6.25016 15" stroke="#4E978A" stroke-width="1.5" stroke-linecap="round" stroke-linejoin="round"/>
</svg>
